<?xml version="1.0" encoding="utf-8"?>
<!-- Generator: Adobe Illustrator 26.0.0, SVG Export Plug-In . SVG Version: 6.00 Build 0)  -->
<svg version="1.1" xmlns="http://www.w3.org/2000/svg" xmlns:xlink="http://www.w3.org/1999/xlink" x="0px" y="0px"
	 viewBox="0 0 1200 1200" style="enable-background:new 0 0 1200 1200;" xml:space="preserve">
<style type="text/css">
	.st0{fill:#00743B;}
	.st1{display:none;}
	.st2{display:inline;fill:#FFFFFF;}
</style>
<g id="Verde">
	<path class="st0" d="M423.19,1176.21l73.98-109.62l192.03,0c128.94,0,233.47-104.53,233.47-233.47
		c0-65.33-26.85-124.39-70.1-166.76c70.46-69.04,97.39-182.34,35.62-294.94c-35.77-65.21-104.71-105.29-179.09-105.29h-31.01
		L855.96,0.01c0,0-93.04-0.02-93.79,0c-20.07,0.67-37.89,10.89-49.68,25.5c-2.56,3.18-179.84,268.76-182.2,273.31
		c-5.01,9.64-7.86,20.58-7.86,32.19c0,38.63,24.84,68.53,63.47,68.53h3.24l0,0l117.73,0c19.57,0,45.27,12.75,56.92,28.48
		c60.77,82.06,3.57,171.61-74.55,171.64c-0.01,0-0.03,0-0.04,0c-0.01,0-0.02,0-0.03,0c-0.01,0-0.02,0-0.02,0H572.57
		c-9.38,0-22.15,5.73-28.26,12.85c-48.25,56.28-9.22,120.56,44.83,120.56h117.73c19.57,0,45.27,12.75,56.92,28.48
		c60.77,82.07,3.56,171.64-74.58,171.64H491.36c-0.04,0-0.08,0-0.12,0s-0.08,0-0.12,0c-21.51,0.04-40.62,10.26-52.79,26.1
		c-0.46,0.6-160.99,240.72-160.99,240.72h101.09C396.38,1200,413.15,1191.08,423.19,1176.21z"/>
</g>
<g id="Blanco" class="st1">
	<path class="st2" d="M423.42,1200l43.88-70.63l203.33,0c136.53,0,247.21-110.68,247.21-247.21c0-69.18-28.43-131.71-74.22-176.58
		c45.8-44.87,74.22-107.4,74.22-176.58c0-136.53-110.68-247.21-247.21-247.21h-11.77L847.21,0.01c0,0-98.52-0.03-99.31,0
		c-21.25,0.71-40.12,11.53-52.6,27c-2.72,3.36-190.43,284.58-192.93,289.39c-5.3,10.21-8.32,21.79-8.32,34.09
		c0,40.9,26.3,72.56,67.21,72.56h3.43l0,0l105.95,0c58.51,0,105.95,47.43,105.95,105.95c0,58.5-47.41,105.92-105.91,105.95
		c-0.01,0-0.03,0-0.04,0c-0.01,0-0.02,0-0.04,0c-0.01,0-0.02,0-0.03,0H564.69c-39.01,0-70.63,31.62-70.63,70.63
		s31.62,70.63,70.63,70.63h105.95c58.51,0,105.95,47.43,105.95,105.95s-47.43,105.95-105.95,105.95H461.15c-0.04,0-0.09,0-0.13,0
		s-0.09,0-0.13,0c-22.77,0.04-43.01,10.87-55.89,27.64c-1.92,2.49-122.84,184.26-122.84,184.26H423.42z"/>
</g>
</svg>
